<svg width="240" height="100" viewBox="0 0 240 100" fill="none" xmlns="http://www.w3.org/2000/svg">
<path fill-rule="evenodd" clip-rule="evenodd" d="M45.5715 4.52029C39.9965 4.94785 34.1985 6.53556 29.0135 9.05431C23.0207 11.9656 17.3622 16.5125 13.2819 21.6954C7.44791 29.106 4.09035 37.7136 3.34535 47.1695C3.1903 49.1375 3.27646 53.776 3.50264 55.6353C4.20862 61.4391 5.69587 66.4839 8.10369 71.243C8.53522 72.0961 8.97468 72.8302 9.10535 72.9165C9.52408 73.1932 10.1609 72.8326 10.1609 72.3187C10.1609 72.1574 9.88672 71.4742 9.55172 70.8002C3.80229 59.2347 3.15727 45.9585 7.77468 34.2213C9.96008 28.666 13.0985 23.8308 17.375 19.4304C20.5715 16.1414 23.6407 13.7304 27.3794 11.5717C32.8958 8.38648 40.0044 6.3206 46.2921 6.07521C47.8204 6.01558 47.8261 6.01619 47.9941 6.258C48.1474 6.47869 48.1626 7.20021 48.1626 14.2693C48.1626 22.038 48.1626 22.038 47.9254 22.2638C47.7949 22.3881 47.5159 22.6223 47.3052 22.7844C47.0846 22.9541 46.8192 23.3018 46.6796 23.6041C46.4737 24.05 46.437 24.2884 46.4362 25.1861C46.4356 25.7673 46.388 26.332 46.3302 26.4408C46.2071 26.6729 45.6194 26.9919 45.1143 27.101C44.2174 27.2947 42.1148 28.0415 41.0962 28.5281C38.7144 29.6658 37.395 30.7802 36.7114 32.2314C36.3698 32.9568 36.3353 33.1141 36.2935 34.1359C36.2573 35.0241 36.2835 35.3429 36.4229 35.711C36.7495 36.5735 35.7646 36.5066 48.6988 36.5443C55.4924 36.564 60.3286 36.539 60.5768 36.4828C61.3002 36.3189 61.4116 36.1189 61.4562 34.9048C61.4776 34.3231 61.4424 33.5915 61.3781 33.2791C61.2183 32.5028 60.6728 31.4 60.1616 30.8196C59.0898 29.6026 56.1282 28.0972 53.1414 27.2512C51.2609 26.7186 51.2108 26.6622 51.2108 25.0788C51.2108 23.825 51.0414 23.3894 50.3131 22.7701C49.9839 22.4902 49.7875 22.225 49.7058 21.9501C49.6173 21.6522 49.5851 19.5056 49.5851 13.8993C49.5851 6.25472 49.5851 6.25472 49.8344 6.08997C50.0557 5.94376 50.2533 5.93802 51.5872 6.03915C52.4141 6.10185 53.6621 6.2246 54.3607 6.31199C65.0584 7.65062 74.7376 12.7881 81.797 20.8743C92.0257 32.5909 95.5504 48.5544 91.1803 63.3709C90.4269 65.9251 88.6514 70.2491 87.9096 71.3364C87.3491 72.1578 87.3821 72.576 88.032 72.887C88.7712 73.2407 88.8325 73.1519 90.5981 69.1663C92.679 64.4687 93.9498 59.4708 94.3903 54.2521C94.5251 52.6544 94.525 48.8781 94.39 47.126C93.5268 35.9231 88.9776 25.898 81.1862 18.0295C73.3137 10.079 63.074 5.34816 51.9221 4.50943C50.3393 4.39038 47.1958 4.39581 45.5715 4.52029ZM48.3978 23.8689C48.0471 24.019 47.9593 24.3055 47.9593 25.3006C47.9593 26.0929 47.9892 26.2596 48.1626 26.4344C48.413 26.687 49.132 26.7121 49.4608 26.4798C49.6682 26.3334 49.6867 26.2378 49.6867 25.3129C49.6867 24.5053 49.6514 24.262 49.5089 24.0861C49.3082 23.8384 48.7322 23.7258 48.3978 23.8689ZM111.542 23.9308C110.924 24.2692 110.957 23.5608 110.957 36.5779C110.957 49.6414 110.921 48.895 111.563 49.2298C111.959 49.4362 112.633 49.4271 112.997 49.2105C113.589 48.8579 113.599 48.7788 113.599 44.2468C113.6 41.6744 113.64 39.9663 113.707 39.7251C113.807 39.3618 114.694 38.207 115.837 36.9541C116.188 36.5691 116.346 36.4632 116.498 36.5126C116.611 36.5493 118.594 39.2889 121.06 42.8168C123.621 46.4796 125.537 49.1241 125.699 49.2207C126.513 49.7053 127.716 49.066 127.721 48.1462C127.722 47.8747 127.099 46.9627 121.207 38.6101C119.709 36.4877 118.456 34.637 118.421 34.4975C118.382 34.3408 118.429 34.1066 118.544 33.8838C118.646 33.6857 120.262 31.7399 122.134 29.5597C124.006 27.3796 125.593 25.4964 125.661 25.3748C125.896 24.9531 125.817 24.5921 125.397 24.1682C125.045 23.8126 124.949 23.7705 124.496 23.7705C124.135 23.7705 123.912 23.8325 123.718 23.9865C123.568 24.1053 121.312 26.6988 118.705 29.7498C116.097 32.8008 113.918 35.3287 113.862 35.3672C113.806 35.4057 113.724 35.4146 113.68 35.3868C113.635 35.359 113.599 32.963 113.599 30.0624C113.599 24.2755 113.595 24.2403 113.002 23.931C112.618 23.7304 111.909 23.7304 111.542 23.9308ZM47.7053 28.135C44.7426 28.5719 42.8947 29.2173 40.3641 30.6992C38.9481 31.5283 38.4812 31.9314 38.1311 32.6267C37.7667 33.3508 37.6936 34.3761 37.981 34.7336C38.1869 34.9898 38.1869 34.9898 48.6871 34.9898C58.3849 34.9898 59.2113 34.9764 59.503 34.8153C59.961 34.5624 60.1189 34.1147 59.961 33.5168C59.6581 32.3703 59.0208 31.6626 57.4663 30.7463C54.5818 29.0462 51.9543 28.2109 49.2295 28.1275C48.5588 28.1069 47.873 28.1104 47.7053 28.135ZM135.902 30.2926C133.876 30.6183 132.099 31.4938 130.632 32.8884C129.145 34.3012 128.327 35.702 127.757 37.8074C127.474 38.8542 127.503 41.3699 127.811 42.5204C128.276 44.2573 129.039 45.6007 130.302 46.9091C131.602 48.256 133.055 49.1198 134.842 49.6085C136.085 49.9488 138.464 49.948 139.712 49.6069C143.23 48.6454 145.805 46.0273 146.799 42.4014C146.938 41.8949 146.976 41.3689 146.971 40.0103C146.966 38.4194 146.941 38.1905 146.691 37.3687C145.648 33.9418 143.066 31.411 139.712 30.5277C138.862 30.3039 136.672 30.1688 135.902 30.2926ZM191.771 30.3702C189.741 30.7606 188.167 31.5836 186.671 33.0357C185.249 34.4161 184.316 36.1539 183.889 38.2172C183.635 39.4445 183.684 41.3284 184.002 42.5496C184.965 46.2464 188.067 49.0871 191.873 49.7575C193.08 49.9701 194.915 49.8973 196.041 49.5924C197.573 49.1778 198.872 48.4333 200.008 47.3193C200.339 46.9951 200.647 46.7538 200.694 46.7829C200.741 46.812 200.779 47.2043 200.779 47.6546C200.779 48.5929 200.933 48.9942 201.385 49.2298C202.014 49.5575 202.812 49.3482 203.153 48.7664C203.303 48.5099 203.319 47.6713 203.319 40.0353C203.319 31.5877 203.319 31.5877 203.087 31.2396C202.617 30.5357 201.594 30.4945 201.041 31.1573C200.807 31.4375 200.779 31.5591 200.777 32.3081C200.775 33.5206 200.709 33.5642 199.998 32.8202C198.977 31.7516 197.564 30.9553 195.91 30.5158C194.906 30.2491 192.787 30.1745 191.771 30.3702ZM149.001 30.776C148.828 30.8544 148.588 31.0454 148.467 31.2005C148.247 31.4826 148.247 31.4826 148.247 40.0277C148.247 47.7929 148.262 48.5963 148.415 48.8305C148.909 49.5912 150.231 49.5574 150.633 48.7739C150.766 48.5142 150.787 47.5654 150.787 41.8084C150.787 38.1426 150.813 35.1434 150.845 35.1434C150.914 35.1434 151.934 36.2331 154.131 38.6533C155.039 39.6539 155.867 40.5185 155.971 40.5744C156.074 40.6304 156.3 40.6762 156.471 40.6762C156.845 40.6762 156.816 40.7043 159.729 37.5085L161.914 35.1117L161.964 41.8978L162.015 48.6839L162.395 49.0345C162.718 49.3336 162.847 49.3853 163.27 49.3853C163.619 49.3853 163.846 49.3218 164.036 49.1713C164.632 48.6984 164.606 49.1099 164.606 40.0565C164.606 32.6774 164.588 31.7035 164.445 31.3996C164.254 30.9939 163.951 30.7735 163.478 30.6964C162.795 30.5851 162.59 30.7624 160.176 33.5553C158.909 35.0205 157.616 36.5555 157.302 36.9665C156.767 37.6676 156.423 37.9122 156.183 37.7627C156.127 37.7275 155.682 37.2044 155.194 36.6004C153.77 34.8364 150.481 31.049 150.228 30.8818C149.89 30.6583 149.36 30.6127 149.001 30.776ZM167.189 30.7808C167.016 30.8566 166.776 31.0454 166.655 31.2005C166.435 31.4826 166.435 31.4826 166.435 39.978C166.435 49.3023 166.409 48.8999 167.042 49.2298C167.629 49.5363 168.465 49.3579 168.817 48.8507C168.953 48.6543 168.975 48.1168 168.975 45.0012C168.975 42.7009 169.014 41.3077 169.081 41.1818C169.183 40.9898 169.348 40.9836 174.44 40.9852C177.331 40.9861 179.751 41.0223 179.819 41.0658C179.911 41.1248 179.949 42.0975 179.971 44.9144L180 48.684L180.379 49.0346C180.703 49.3336 180.832 49.3853 181.255 49.3853C181.61 49.3853 181.83 49.322 182.031 49.1631C182.607 48.706 182.591 48.9697 182.591 40.0034C182.591 31.0287 182.606 31.2801 182.038 30.9048C181.464 30.5253 180.599 30.656 180.213 31.1804C180.01 31.4567 179.998 31.6216 179.949 34.869L179.898 38.2684L174.52 38.295C170.284 38.3159 169.124 38.2941 169.06 38.1925C169.015 38.1216 168.978 36.5828 168.977 34.7731C168.975 31.5539 168.971 31.4764 168.755 31.2002C168.527 30.9083 168 30.6323 167.683 30.6392C167.584 30.6415 167.361 30.7052 167.189 30.7808ZM205.148 30.7503C204.768 30.9032 204.457 31.2378 204.328 31.6321C204.234 31.9178 204.244 32.0675 204.381 32.4284C204.679 33.2154 204.77 33.2409 207.485 33.2992L209.873 33.3504L209.924 40.9324C209.962 46.7112 210.005 48.5673 210.101 48.7369C210.345 49.1674 210.735 49.3853 211.26 49.3853C211.683 49.3853 211.812 49.3336 212.135 49.0345L212.515 48.6838L212.566 41.0171L212.616 33.3504L215.004 33.2992C217.281 33.2503 217.407 33.2372 217.715 33.0157C218.095 32.7425 218.302 32.1966 218.211 31.7084C218.13 31.2725 217.658 30.7863 217.233 30.7005C216.689 30.5908 205.43 30.6372 205.148 30.7503ZM219.987 30.7658C219.788 30.8365 219.533 31.0437 219.402 31.2396C219.17 31.5877 219.17 31.5877 219.17 40.0287C219.17 49.0495 219.168 49.0074 219.663 49.2746C220.165 49.5457 220.765 49.3254 221.053 48.7642C221.241 48.3979 221.445 48.3865 222.028 48.7103C223.776 49.6818 226.809 50.1494 228.727 49.7427C232.323 48.9799 234.818 45.7072 234.818 41.7521C234.818 37.7997 232.54 35.0294 228.791 34.4221C227.83 34.2665 224.345 34.3535 223.031 34.5659C221.781 34.7681 221.812 34.8051 221.812 33.1318C221.812 31.6305 221.705 31.1994 221.259 30.9048C220.921 30.6812 220.387 30.6229 219.987 30.7658ZM237.299 30.7808C237.126 30.8566 236.886 31.0454 236.765 31.2005C236.545 31.4826 236.545 31.4826 236.545 39.978C236.545 49.3023 236.519 48.8999 237.152 49.2298C237.739 49.5363 238.575 49.3579 238.927 48.8507C239.068 48.6483 239.086 47.6526 239.086 40.0525C239.086 31.4826 239.086 31.4826 238.865 31.2002C238.638 30.9083 238.11 30.6323 237.793 30.6392C237.694 30.6415 237.471 30.7052 237.299 30.7808ZM135.699 32.8297C133.78 33.3769 132.253 34.493 131.24 36.091C129.333 39.0969 129.825 42.9845 132.426 45.4512C133.293 46.2738 134.016 46.7304 135.055 47.1119C135.734 47.3613 135.931 47.3856 137.273 47.3856C138.616 47.3856 138.813 47.3613 139.492 47.1119C140.615 46.6996 141.298 46.2482 142.263 45.2813C142.992 44.5511 143.217 44.2429 143.61 43.437C144.238 42.1465 144.421 41.3865 144.422 40.0615C144.423 36.9082 142.476 34.1267 139.509 33.0405C138.869 32.8062 138.544 32.7554 137.477 32.7232C136.587 32.6963 136.055 32.7282 135.699 32.8297ZM191.787 32.8866C190.822 33.1453 190.383 33.3429 189.583 33.8774C187.283 35.4131 185.931 38.4208 186.343 41.0837C186.612 42.8263 187.21 44.0005 188.484 45.2897C189.923 46.7448 191.565 47.4401 193.556 47.437C194.771 47.4352 195.609 47.2405 196.707 46.7053C197.891 46.1286 199.228 44.7958 199.849 43.5745C200.941 41.4288 200.972 38.899 199.934 36.8201C198.928 34.8057 197.125 33.3261 195.089 32.8439C194.183 32.6293 192.673 32.6488 191.787 32.8866ZM223.929 36.8968C222.932 37.0264 222.317 37.2876 222.043 37.6967C221.812 38.0421 221.812 38.0485 221.812 42.108C221.812 46.1733 221.812 46.1733 222.042 46.3911C222.367 46.6991 223.082 46.9981 223.957 47.1916C224.931 47.4072 227.587 47.5032 228.301 47.3487C231.053 46.7536 232.796 43.6179 232.131 40.4579C231.745 38.6176 230.463 37.3213 228.647 36.9333C227.882 36.7697 225.073 36.748 223.929 36.8968ZM25.657 43.2665C24.0869 44.9114 22.9169 47.1568 22.4421 49.4365C22.2555 50.3325 22.281 52.5372 22.4903 53.6108C22.6974 54.6724 23.2516 56.3216 23.7284 57.2944L24.0703 57.9918L22.9327 57.9924C21.5775 57.993 21.0675 58.1108 20.9101 58.4592C20.7891 58.7269 21.1742 61.4518 21.9067 65.512C22.223 67.2655 22.2417 67.4703 22.1044 67.6817C21.9528 67.9151 21.9528 67.9151 18.724 67.9483C14.2068 67.9949 14.4792 67.7659 14.4792 71.5164C14.4792 73.6894 14.5025 74.0696 14.6526 74.3458C14.9498 74.8931 15.4002 75.0273 17.1204 75.0803C17.959 75.1063 18.7024 75.1736 18.7722 75.2299C18.9818 75.3992 18.9217 75.7884 18.4037 77.6127C18.1317 78.5707 17.5349 80.7396 17.0777 82.4324C16.1275 85.9494 16.1284 85.9289 16.935 86.2887C17.4861 86.5345 18.3455 86.508 18.8813 86.2286C19.3226 85.9985 19.8984 85.4739 20.0612 85.1539C20.1937 84.8932 21.3901 80.7112 22.2881 77.3698C22.6393 76.0625 22.7977 75.6329 23.0058 75.4231C23.2729 75.1537 23.2729 75.1537 26.8205 75.1339C30.3277 75.1144 30.372 75.1167 30.7012 75.3405C30.8855 75.4657 31.0898 75.7262 31.1586 75.9238C31.346 76.4612 32.9673 82.3494 33.3279 83.8016C33.6718 85.1871 33.7954 85.4891 34.1577 85.8301C34.695 86.3361 35.79 86.5216 36.7128 86.2632C37.5534 86.0279 37.669 85.566 37.2368 84.1701C37.0972 83.7193 36.7057 82.313 36.3667 81.0451C36.0277 79.7772 35.5711 78.2066 35.3519 77.5548C34.9019 76.2167 34.8491 75.6175 35.1541 75.31C35.458 75.0035 35.8142 74.9564 36.9754 75.069C38.2635 75.194 38.8791 75.1024 39.1956 74.7388C39.4211 74.4799 39.4242 74.4364 39.4242 71.6081C39.4242 68.4946 39.3928 68.2938 38.8682 68.0528C38.6782 67.9655 37.6024 67.9303 35.1168 67.9303C31.7698 67.9303 31.6246 67.9222 31.4493 67.727C31.2253 67.4774 31.2008 67.6821 32.048 62.7218C32.7601 58.5527 32.7642 58.4344 32.204 58.1424C31.9971 58.0345 31.57 57.9918 30.6978 57.9918H29.4805L29.9323 57.0167C31.3685 53.9177 31.6129 50.9431 30.6774 47.9508C30.1057 46.1223 28.4084 43.479 27.3398 42.7528C26.7336 42.3409 26.4612 42.424 25.657 43.2665ZM26.0975 45.0672C25.5576 45.6759 24.8085 46.9482 24.4509 47.8634C23.9477 49.1515 23.8339 49.8282 23.8419 51.4857C23.8482 52.7884 23.8884 53.1708 24.106 53.9959C24.5324 55.6128 24.977 56.6601 25.4326 57.1209C25.8082 57.5009 25.8436 57.5159 25.9176 57.3258C25.9615 57.2131 26.0008 54.9051 26.0047 52.1968C26.0102 48.4218 26.0415 47.2318 26.1392 47.0971C26.337 46.8244 26.9355 46.7667 27.2135 46.9937C27.4451 47.1828 27.4451 47.1828 27.4651 52.2236C27.479 55.7108 27.5194 57.2989 27.5963 57.3764C27.76 57.5415 28.4148 56.7676 28.7588 56.0024C29.167 55.0947 29.545 53.5882 29.6632 52.3983C29.892 50.0943 29.325 47.8643 27.9994 45.8554C27.4026 44.9509 27.0228 44.5697 26.7188 44.5697C26.6198 44.5697 26.3401 44.7936 26.0975 45.0672ZM62.6718 45.7454C59.4773 46.2985 57.1089 48.1873 56.0941 50.9912C55.4557 52.7551 55.4526 52.7921 55.4044 59.1169L55.3604 64.9039L54.938 64.0879C54.3801 63.0099 53.4483 62.0148 52.6096 61.6007C51.3752 60.9914 51.019 60.9631 44.5755 60.9631C39.0555 60.9631 38.7355 60.9732 38.5763 61.1505C38.335 61.4194 38.3596 62.0141 38.6219 62.2536C38.8231 62.4372 39.0615 62.4503 42.6502 62.4742C45.2916 62.4917 46.5069 62.535 46.6024 62.6148C46.9219 62.8823 46.6995 64.2252 46.133 65.4476C45.7469 66.2808 45.4295 66.6329 44.7587 66.9721C42.7701 67.9776 41.5418 69.8997 41.542 72.0059C41.5422 73.6906 42.0642 74.8595 43.5025 76.396C43.981 76.9073 44.206 77.2343 44.2531 77.4872C44.295 77.7131 44.2191 78.4183 44.0502 79.3699C43.3518 83.3068 43.0247 85.5334 43.108 85.7855C43.2739 86.2871 44.1647 86.4122 44.401 85.967C44.5159 85.7505 44.7031 84.7008 45.3245 80.7889C45.6345 78.8373 45.7754 78.183 45.9159 78.0405C46.0894 77.8647 46.3744 77.8542 50.7009 77.8647C53.689 77.8719 55.3711 77.9134 55.5001 77.983C55.7622 78.1245 55.9461 78.5994 56.0311 79.3545C56.1471 80.3844 57.0024 85.42 57.1184 85.7554C57.3099 86.3093 57.8239 86.4295 58.2862 86.0285L58.5653 85.7866L58.2813 83.8512C58.1251 82.7869 57.8649 81.168 57.7031 80.2538C57.3542 78.2823 57.3471 78.1145 57.6055 77.9749C57.7322 77.9066 59.3498 77.8689 62.1585 77.8689C65.6345 77.8689 66.5524 77.8965 66.7007 78.0059C66.9426 78.1842 66.918 78.4235 66.2592 82.3084C65.9741 83.9894 65.7409 85.4482 65.7409 85.5501C65.7409 86.0845 66.5297 86.4377 66.9525 86.0925C67.1639 85.9199 67.2356 85.6347 67.5796 83.5994C67.7933 82.3355 68.0399 80.7941 68.1278 80.1742C68.2157 79.5543 68.3588 78.8502 68.446 78.6095C68.6971 77.9158 68.8688 77.8689 71.1586 77.8689C74.0485 77.8689 75.4364 77.5689 77.13 76.5781C77.9105 76.1215 78.0842 76.0604 78.1759 76.2098C78.2038 76.2553 78.5754 78.4108 79.0016 80.9998C79.7997 85.8466 79.8848 86.1807 80.3386 86.2495C80.6657 86.2991 81.0809 86.0867 81.1822 85.818C81.2522 85.6324 81.0531 84.2247 80.4192 80.4237C79.8193 76.8258 79.5809 75.1586 79.6258 74.8749C79.6622 74.6455 79.9113 74.1286 80.1997 73.6845C80.8789 72.6381 81.3305 71.6506 81.613 70.5943C81.8459 69.7234 81.8459 69.7234 81.8459 61.3217C81.8459 52.9201 81.8459 52.9201 81.6165 52.1221C81.1124 50.3681 80.4528 49.181 79.3833 48.1026C78.3614 47.0722 77.2339 46.4022 75.7297 45.9315C74.8349 45.6514 74.8349 45.6514 69.1448 45.6306C64.8082 45.6148 63.2684 45.642 62.6718 45.7454ZM63.9119 47.1277C61.6506 47.2582 60.3978 47.7896 58.9726 49.2225C58.3156 49.8832 58.064 50.2279 57.7321 50.9221C56.956 52.5456 56.9735 52.3615 56.9278 59.4381C56.8872 65.7512 56.8872 65.7512 57.1292 66.0349L57.3713 66.3187L61.8191 66.3304C66.2669 66.3422 66.2669 66.3422 66.4611 66.5841C66.7082 66.8918 66.7082 67.2271 66.4612 67.5347C66.267 67.7766 66.267 67.7766 56.3765 67.83C46.6029 67.8829 46.4793 67.8861 45.9164 68.1012C44.31 68.7153 43.3234 69.8696 43.0552 71.4487C42.6885 73.6075 44.1915 75.7406 46.4148 76.2167C47.1148 76.3665 66.5151 76.3806 66.904 76.2316C67.0481 76.1763 67.2111 76.0266 67.2662 75.8986C67.3889 75.6145 69.3988 63.5085 69.3988 63.0541C69.3988 62.8758 69.3347 62.6763 69.2562 62.6108C69.1544 62.5255 68.0201 62.4854 65.2846 62.4701C61.4553 62.4488 61.4553 62.4488 61.2611 62.2069C61.0093 61.8932 61.0133 61.427 61.2701 61.168C61.4686 60.9678 61.6075 60.9631 67.3412 60.9649C73.5776 60.9668 73.9811 60.9934 75.0565 61.4731C76.2845 62.0208 77.201 63.0957 77.6782 64.5479C77.8173 64.9712 78.1381 66.5856 78.3911 68.1353C78.644 69.685 78.901 71.2033 78.9623 71.5094C79.0737 72.0659 79.0737 72.0659 79.2696 71.8168C79.6443 71.3403 80.0847 70.359 80.2264 69.6846C80.3415 69.1371 80.369 67.5425 80.3688 61.4242C80.3686 56.9267 80.3273 53.5547 80.2672 53.1355C80.2115 52.7467 80.0556 52.1089 79.9208 51.7179C79.1791 49.5672 77.3898 47.93 75.118 47.3232C74.3857 47.1276 73.9905 47.1095 69.8052 47.0802C67.3184 47.0628 64.6664 47.0841 63.9119 47.1277ZM22.735 59.6394C22.6371 59.6968 22.5571 59.8481 22.5571 59.9756C22.5571 60.2404 23.2942 64.7996 23.5367 66.0348C23.7336 67.0374 23.9743 67.5368 24.3526 67.7277C24.7758 67.9413 29.2323 68.0047 29.5044 67.801C29.6459 67.6951 29.7443 67.3581 29.8881 66.4881C29.9946 65.8444 30.2877 64.1304 30.5397 62.6793C31.0103 59.9696 31.0169 59.7419 30.6296 59.592C30.3435 59.4813 22.9283 59.5258 22.735 59.6394ZM48.5255 62.7395C48.281 62.986 48.14 63.4928 47.9417 64.8375C47.8156 65.6921 47.9062 66.0318 48.3003 66.1829C48.5932 66.2952 53.3218 66.348 53.5732 66.2417C53.9598 66.0784 53.6305 64.7405 52.9977 63.9039C52.341 63.0357 51.0524 62.5 49.6205 62.5C48.8573 62.5 48.7369 62.5263 48.5255 62.7395ZM71.235 62.7843C71.0015 63.0199 70.9317 63.2178 70.8287 63.937C70.7067 64.7895 70.2186 67.7447 69.4036 72.5656C69.1774 73.9034 68.9924 75.1829 68.9924 75.4088C68.9924 76.2599 69.4051 76.3787 72.1156 76.3074C74.0837 76.2556 74.6969 76.1247 75.9457 75.4897C77.6525 74.6217 77.9181 74.1698 77.6259 72.6318C77.5681 72.3283 77.2924 70.6967 77.0132 69.0062C76.7338 67.3156 76.4339 65.6802 76.3466 65.3719C75.7884 63.4005 74.5449 62.5043 72.363 62.5012C71.5729 62.5001 71.4983 62.5188 71.235 62.7843ZM204.651 62.964C203.818 63.1981 203.132 63.6139 202.457 64.293C200.456 66.3057 200.496 69.5128 202.546 71.4981C204.183 73.0833 206.416 73.3942 208.421 72.3163C209.548 71.7107 210.572 70.2998 210.844 68.9774C211.011 68.1686 210.914 66.7911 210.64 66.0619C210.122 64.6865 209.087 63.6036 207.813 63.1046C207.058 62.8088 205.456 62.7376 204.651 62.964ZM111.218 63.0708C111.078 63.2125 111.058 63.7898 111.058 67.8659C111.058 71.3336 111.089 72.531 111.18 72.623C111.247 72.6906 111.421 72.7459 111.566 72.7459C112.054 72.7459 112.074 72.6488 112.074 70.3689V68.2377H114.564H117.053V70.3689C117.053 71.8898 117.088 72.5353 117.175 72.623C117.368 72.8177 117.845 72.7723 117.964 72.5478C118.032 72.4197 118.069 70.74 118.069 67.7993C118.069 63.3565 118.065 63.2446 117.863 63.0608C117.7 62.9116 117.599 62.8928 117.381 62.9704C117.104 63.0684 117.104 63.0684 117.077 65.1407L117.049 67.2131H114.562H112.074V65.2224C112.074 63.1082 112.031 62.9098 111.566 62.9098C111.463 62.9098 111.306 62.9823 111.218 63.0708ZM125.447 63.1404C125.367 63.2671 124.471 65.374 123.456 67.8221C121.879 71.6261 121.627 72.3077 121.718 72.5096C121.86 72.8238 122.365 72.8347 122.578 72.5283C122.661 72.4086 122.945 71.7862 123.208 71.1451L123.687 69.9795H125.845H128.003L128.484 71.1528C128.749 71.7981 129.032 72.4205 129.112 72.536C129.321 72.8364 129.827 72.8194 129.968 72.5072C130.061 72.3022 129.817 71.6423 128.233 67.8197C127.219 65.3729 126.322 63.2671 126.24 63.1404C126.153 63.0046 125.989 62.9098 125.842 62.9098C125.695 62.9098 125.534 63.0039 125.447 63.1404ZM146.035 63.0694C145.91 63.1571 145.809 63.3122 145.809 63.4141C145.809 63.5159 146.074 63.9398 146.399 64.356C147.525 65.7987 148.349 66.9119 148.349 66.9913C148.349 67.0352 147.641 68.1981 146.775 69.5755C145.909 70.953 145.201 72.1744 145.2 72.29C145.199 72.5781 145.39 72.7459 145.72 72.7459C145.971 72.7459 146.139 72.5193 147.503 70.3429C148.331 69.0212 149.042 67.9377 149.082 67.9352C149.122 67.9325 149.34 68.1765 149.565 68.4776L149.975 69.0248V70.6872C149.975 71.6371 150.02 72.4344 150.08 72.5478C150.199 72.7723 150.676 72.8177 150.869 72.623C150.954 72.5372 150.991 71.985 150.991 70.7972V69.0944L151.402 68.538C151.628 68.232 151.849 67.9688 151.893 67.953C151.937 67.9373 152.56 68.8594 153.276 70.0022C154.935 72.6486 155.007 72.7459 155.312 72.7459C155.638 72.7459 155.923 72.3248 155.78 72.0547C155.724 71.9488 155.012 70.8082 154.198 69.5201C153.384 68.232 152.718 67.0965 152.718 66.9968C152.718 66.8971 153.265 66.1096 153.934 65.2469C154.603 64.3841 155.152 63.5817 155.154 63.4636C155.157 63.1927 154.824 62.8807 154.58 62.9272C154.478 62.9465 153.64 63.9422 152.718 65.1398L151.041 67.3172L150.991 65.212C150.949 63.4917 150.912 63.0891 150.787 63.0099C150.554 62.8613 150.328 62.8911 150.145 63.0947C150.006 63.2499 149.975 63.5992 149.951 65.27L149.924 67.2604L148.361 65.2131C147.501 64.0872 146.727 63.1084 146.639 63.0379C146.432 62.8699 146.308 62.8763 146.035 63.0694ZM159.907 63.0205C159.742 63.1175 159.729 63.4563 159.729 67.8125C159.729 71.3217 159.76 72.531 159.851 72.623C160.025 72.798 165.124 72.798 165.297 72.623C165.477 72.4419 165.446 72.0846 165.233 71.8909C165.073 71.7444 164.755 71.7213 162.896 71.7213H160.745V69.9795V68.2377H162.572C164.398 68.2377 164.398 68.2377 164.565 67.9816C164.719 67.7443 164.719 67.7066 164.565 67.4693C164.398 67.2131 164.398 67.2131 162.572 67.2131H160.745V65.5738V63.9344H162.808C165.015 63.9344 165.114 63.9123 165.114 63.4221C165.114 63.2756 165.059 63.1004 164.992 63.0328C164.836 62.875 160.174 62.8637 159.907 63.0205ZM172.552 63.0386C172.494 63.1094 171.595 65.2127 170.555 67.7125C168.741 72.071 168.669 72.2677 168.821 72.5019C169.026 72.8167 169.43 72.8235 169.624 72.5154C169.704 72.3886 170.467 70.5638 171.32 68.4605C172.42 65.7483 172.896 64.6819 172.958 64.7934C173.006 64.8797 173.734 66.6468 174.576 68.7201C175.418 70.7935 176.154 72.5474 176.212 72.6178C176.475 72.941 177.193 72.561 177.076 72.1602C176.965 71.7798 173.426 63.3604 173.285 63.1404C173.122 62.8877 172.722 62.8321 172.552 63.0386ZM182.898 63.0729C181.453 63.4677 180.658 64.4203 180.663 65.7498C180.665 66.4883 180.908 67.0466 181.435 67.5255L181.835 67.8892L181.455 68.162C180.714 68.6938 180.485 69.5055 180.711 70.7992C180.9 71.8771 180.901 71.8238 180.676 71.8238C180.456 71.8238 180.152 72.1313 180.152 72.3539C180.152 72.751 180.827 72.9847 181.276 72.7428C181.702 72.5129 181.784 72.1301 181.713 70.7082C181.646 69.3798 181.646 69.3798 181.949 69.0746C182.371 68.6487 182.844 68.5463 184.395 68.5457L185.741 68.5451V70.4473C185.741 71.5626 185.784 72.4316 185.846 72.5478C185.919 72.6845 186.059 72.7459 186.3 72.7459C186.54 72.7459 186.681 72.6845 186.753 72.5478C186.917 72.2389 186.893 63.5478 186.727 63.2172C186.599 62.962 186.593 62.961 185.027 62.9409C183.9 62.9264 183.297 62.9638 182.898 63.0729ZM191.091 63.0972C190.94 63.2656 190.923 63.7434 190.923 67.817C190.923 70.7455 190.96 72.4197 191.028 72.5478C191.126 72.7325 191.258 72.7459 192.984 72.7458C194.815 72.7457 194.842 72.7425 195.445 72.4506C197.512 71.4499 197.905 68.9545 196.238 67.4183C195.493 66.7319 195.014 66.5984 193.292 66.5984H191.939V65.2664V63.9344H193.9C195.29 63.9344 195.897 63.8986 195.983 63.8115C196.176 63.6167 196.131 63.1361 195.908 63.0159C195.79 62.9521 194.826 62.9098 193.486 62.9098C191.458 62.9098 191.244 62.9265 191.091 63.0972ZM215.08 63.0144C214.915 63.1171 214.903 63.459 214.903 67.8204C214.903 71.7904 214.925 72.5349 215.049 72.6388C215.156 72.728 215.734 72.7515 217.158 72.7245C218.901 72.6914 219.172 72.6628 219.594 72.4676C220.707 71.9522 221.304 71.0653 221.304 69.926C221.304 69.0781 221.006 68.4468 220.304 67.8112L219.802 67.3553L220.245 66.9208C221.424 65.7635 220.928 63.7596 219.316 63.1677C218.71 62.9454 215.385 62.825 215.08 63.0144ZM228.231 62.999C228.062 63.107 224.352 72.0009 224.352 72.298C224.352 72.5939 224.586 72.7675 224.93 72.7277C225.192 72.6974 225.263 72.5838 225.782 71.3627L226.348 70.0307H228.518H230.687L231.203 71.2608C231.836 72.7696 231.82 72.7459 232.162 72.7459C232.485 72.7459 232.684 72.58 232.684 72.3114C232.684 72.0417 228.952 63.0929 228.798 62.9947C228.633 62.8888 228.401 62.8907 228.231 62.999ZM204.834 63.9171C202.721 64.6237 201.545 66.9008 202.189 69.0381C202.646 70.5555 203.859 71.6347 205.43 71.922C206.576 72.1315 207.713 71.7819 208.596 70.9493C209.572 70.0287 209.984 68.9544 209.898 67.5555C209.803 66.0224 208.954 64.7205 207.641 64.0941C206.84 63.7123 205.668 63.6383 204.834 63.9171ZM183.251 64.0297C182.189 64.2888 181.727 64.8036 181.727 65.7275C181.727 66.491 181.974 66.8836 182.666 67.2192C183.07 67.4157 183.362 67.4617 184.445 67.4995L185.741 67.5447V65.7396V63.9344L184.649 63.9449C184.048 63.9507 183.419 63.9888 183.251 64.0297ZM215.995 63.9916C215.953 64.0353 215.919 64.6915 215.919 65.4498V66.8287L217.424 66.7856C218.697 66.7491 218.982 66.7108 219.278 66.5367C219.741 66.2639 219.899 65.9365 219.85 65.3491C219.763 64.2885 219.3 64.0266 217.392 63.9589C216.666 63.9332 216.037 63.9479 215.995 63.9916ZM125.762 64.8778C125.08 66.5327 124.166 68.788 124.166 68.8158C124.166 68.836 124.925 68.8525 125.853 68.8525C127.164 68.8525 127.529 68.8239 127.488 68.7244C127.459 68.654 127.087 67.7464 126.662 66.7076C126.237 65.6689 125.873 64.8024 125.853 64.7821C125.833 64.7619 125.792 64.8049 125.762 64.8778ZM227.679 66.6991C227.246 67.7641 226.892 68.6843 226.892 68.7441C226.892 68.8158 227.442 68.8525 228.518 68.8525C229.412 68.8525 230.144 68.8211 230.144 68.7828C230.144 68.6785 228.609 64.9193 228.532 64.8353C228.496 64.7953 228.112 65.634 227.679 66.6991ZM191.939 69.6625V71.7213L193.184 71.7207C194.721 71.7201 195.119 71.6151 195.662 71.0674C196.605 70.1173 196.453 68.7973 195.307 67.9854C194.875 67.6789 194.846 67.6737 193.404 67.6389L191.939 67.6037V69.6625ZM215.919 69.7648V71.7213L217.214 71.7207C218.618 71.7201 219.062 71.6384 219.583 71.2844C220.066 70.9565 220.308 70.4848 220.304 69.8827C220.299 69.3087 220.13 68.9217 219.713 68.5312C219.115 67.9718 218.817 67.8865 217.316 67.846L215.919 67.8082V69.7648ZM16.494 69.6166C16.0155 69.8264 15.9246 70.0994 15.8717 71.4865C15.8164 72.9328 15.9053 73.2736 16.3908 73.4764C16.8033 73.6487 36.869 73.6491 37.3105 73.4768C37.7745 73.2957 37.9135 72.9534 37.9741 71.8432C38.0411 70.6176 37.9511 69.9285 37.6895 69.6648C37.4986 69.4722 37.2321 69.4673 27.1549 69.4712C18.5964 69.4746 16.7608 69.4996 16.494 69.6166ZM20.643 75.3842C20.4643 75.7317 18.0816 84.5404 18.1403 84.6364C18.2517 84.818 18.5982 84.7349 18.6962 84.5031C18.7499 84.3763 19.0434 83.3735 19.3486 82.2746C19.6539 81.1757 20.2015 79.2035 20.5657 77.8918C20.9299 76.5801 21.202 75.4389 21.1704 75.356C21.0912 75.148 20.7553 75.166 20.643 75.3842ZM32.6508 75.3137C32.5746 75.3905 32.5968 75.5791 32.7261 75.9541C32.8269 76.2464 33.3953 78.2838 33.9892 80.4816C34.6809 83.0412 35.129 84.524 35.2358 84.6069C35.4373 84.7634 35.6029 84.7222 35.6447 84.5052C35.6773 84.3361 33.3702 75.6914 33.2105 75.3842C33.1065 75.184 32.8157 75.1475 32.6508 75.3137Z" fill="#FFFCFC"/>
</svg>
